<?xml version="1.0" encoding="UTF-8"?>
<svg xmlns="http://www.w3.org/2000/svg" xml:space="preserve" width="90.45mm" height="96.3385mm" version="1.1" style="shape-rendering:geometricPrecision; text-rendering:geometricPrecision; image-rendering:optimizeQuality; fill-rule:evenodd; clip-rule:evenodd"
viewBox="0 0 8557 9114" xmlnsXlink="http://www.w3.org/1999/xlink">
 <g id="Layer_x0020_1">
  <metadata id="CorelCorpID_0Corel-Layer"/>
  <g id="_105553204916064">
   <path fill="black" fill-rule="nonzero" d="M7291 2406l22 4122 694 -352 -25 -4115 542 -278 32 4933 -3 1 2 300 -1782 902 -20 -4424 -541 277 16 4423 -1793 908 -3 -1098 3 -1 -11 -4129 538 -276 13 4115 708 -359 -13 -4119c540,-277 1079,-553 1620,-830z"/>
   <polygon fill="black" fill-rule="nonzero" points="4133,6130 1533,4808 1535,5501 3103,6296 3107,7908 1059,6877 1055,5268 1053,4575 1048,3000 4127,4575 4125,3886 1032,2299 281,1913 0,1769 17,7045 306,7191 1048,7563 3108,8597 4126,9108 4137,9114 "/>
   <g>
    <polygon fill="black" points="1084,1122 1889,728 3980,1790 3177,2191 "/>
    <polygon fill="black" points="2583,388 3376,0 5464,1048 4673,1443 "/>
    <polygon fill="black" points="6483,1169 6994,912 7668,1248 8382,1604 8383,1604 7872,1864 7871,1864 4805,3428 4806,3428 4277,3698 4276,3698 3560,3329 2883,2981 3412,2714 4089,3061 7158,1507 "/>
   </g>
  </g>
 </g>
</svg>
