<svg width="20" height="20" viewBox="0 0 20 20" fill="none" xmlns="http://www.w3.org/2000/svg">
<path d="M18.3337 5.62508C18.6788 5.62508 18.9587 5.34526 18.9587 5.00008C18.9587 4.65491 18.6788 4.37508 18.3337 4.37508V5.62508ZM11.667 4.37508C11.3218 4.37508 11.042 4.65491 11.042 5.00008C11.042 5.34526 11.3218 5.62508 11.667 5.62508V4.37508ZM15.6253 1.66675C15.6253 1.32157 15.3455 1.04175 15.0003 1.04175C14.6552 1.04175 14.3753 1.32157 14.3753 1.66675H15.6253ZM14.3753 8.33341C14.3753 8.67858 14.6552 8.95841 15.0003 8.95841C15.3455 8.95841 15.6253 8.67858 15.6253 8.33341H14.3753ZM18.3337 4.37508H15.0003V5.62508H18.3337V4.37508ZM15.0003 4.37508H11.667V5.62508H15.0003V4.37508ZM14.3753 1.66675V5.00008H15.6253V1.66675H14.3753ZM14.3753 5.00008V8.33341H15.6253V5.00008H14.3753Z" fill="#868897"/>
<path d="M9.58366 2.5C5.85171 2.5 3.98573 2.5 2.82636 3.65937C1.66699 4.81874 1.66699 6.68472 1.66699 10.4167C1.66699 14.1486 1.66699 16.0146 2.82636 17.174C3.98573 18.3333 5.85171 18.3333 9.58366 18.3333C13.3156 18.3333 15.1816 18.3333 16.341 17.174C17.5003 16.0146 17.5003 14.1486 17.5003 10.4167V10" stroke="#868897" stroke-width="1.5" stroke-linecap="round"/>
<path d="M1.66699 11.7796C2.18284 11.7046 2.70436 11.6676 3.22675 11.669C5.4367 11.6222 7.59253 12.3108 9.30958 13.6119C10.902 14.8185 12.0209 16.4791 12.5003 18.3334" stroke="#868897" stroke-width="1.5" stroke-linejoin="round"/>
<path d="M17.5 14.0801C16.5205 13.584 15.5073 13.3322 14.4885 13.3333C12.9454 13.3272 11.4179 13.8943 10 14.9999" stroke="#868897" stroke-width="1.5" stroke-linejoin="round"/>
</svg>
