<svg width="34" height="32" viewBox="0 0 34 32" fill="none" xmlns="http://www.w3.org/2000/svg">
<path fill-rule="evenodd" clip-rule="evenodd" d="M20.3306 0.734091C18.1401 0.588486 15.8553 0.588786 13.6695 0.734091C6.8195 1.18943 1.38458 6.71887 0.937696 13.6336C0.854101 14.9272 0.854101 16.2652 0.937696 17.5588C1.10408 20.1334 2.22722 22.456 3.47571 24.3406C3.84971 25.0628 3.65484 26.1461 2.95535 27.4717C2.72033 27.9167 2.45804 28.4135 2.32532 28.7851C2.18469 29.1787 2.03934 29.8037 2.40186 30.4217C2.73494 30.9896 3.26712 31.1977 3.69728 31.2809C4.05441 31.3501 4.56092 31.3621 4.97175 31.372C7.10138 31.4237 8.60204 30.8089 9.7907 29.9324C10.0266 29.7584 10.1886 29.6393 10.3106 29.5555C10.488 29.6206 10.7304 29.72 11.0876 29.8672C11.8997 30.2015 12.8221 30.4019 13.6695 30.4583C15.8553 30.6035 18.1401 30.6038 20.3306 30.4583C27.1805 30.0029 32.6154 24.4735 33.0623 17.5588C33.1459 16.2652 33.1459 14.9272 33.0623 13.6336C32.6154 6.71887 27.1805 1.18943 20.3306 0.734091ZM14.0003 10.375C13.0682 10.375 12.2406 10.9715 11.9459 11.8558L9.18303 20.1442C8.98656 20.7337 9.30512 21.3707 9.89454 21.5672C10.484 21.7637 11.1211 21.4451 11.3176 20.8558L12.0612 18.625H15.9395L16.683 20.8558C16.8795 21.4451 17.5166 21.7637 18.1061 21.5672C18.6954 21.3707 19.014 20.7337 18.8175 20.1442L16.0547 11.8558C15.7599 10.9715 14.9324 10.375 14.0003 10.375ZM14.0003 12.8076L15.1895 16.375H12.8112L14.0003 12.8076ZM23.3753 11.5C23.3753 10.8787 22.8716 10.375 22.2503 10.375C21.629 10.375 21.1253 10.8787 21.1253 11.5V20.5C21.1253 21.1213 21.629 21.625 22.2503 21.625C22.8716 21.625 23.3753 21.1213 23.3753 20.5V11.5Z" fill="white"/>
</svg>
