<svg width="16" height="16" viewBox="0 0 16 16" fill="none" xmlns="http://www.w3.org/2000/svg">
<path d="M5.66699 9.6665H10.3337M5.66699 6.33317H8.00033" stroke="#868897" stroke-width="1.5" stroke-linecap="round" stroke-linejoin="round"/>
<path d="M9.44723 13.9269C12.2359 13.7415 14.4572 11.4887 14.64 8.66042C14.6758 8.10695 14.6758 7.53379 14.64 6.98032C14.4572 4.15209 12.2359 1.89926 9.44723 1.71389C8.49584 1.65065 7.50254 1.65077 6.55309 1.71389C3.76442 1.89926 1.5431 4.15209 1.36032 6.98032C1.32455 7.53379 1.32455 8.10695 1.36032 8.66042C1.42689 9.6905 1.88245 10.6442 2.41877 11.4496C2.73017 12.0134 2.52466 12.7171 2.2003 13.3317C1.96644 13.7749 1.8495 13.9965 1.94339 14.1566C2.03728 14.3166 2.247 14.3218 2.66645 14.332C3.49594 14.3522 4.05529 14.117 4.49928 13.7896C4.7511 13.6039 4.87701 13.511 4.96379 13.5004C5.05057 13.4897 5.22134 13.56 5.56283 13.7007C5.86976 13.8271 6.22614 13.9051 6.55309 13.9269C7.50254 13.99 8.49584 13.9901 9.44723 13.9269Z" stroke="#868897" stroke-width="1.5" stroke-linejoin="round"/>
</svg>
