<svg width="24" height="24" viewBox="0 0 24 24" fill="none" xmlns="http://www.w3.org/2000/svg">
<mask id="path-1-outside-1_3405_1883" maskUnits="userSpaceOnUse" x="1" y="1" width="21" height="22" fill="black">
<rect fill="white" x="1" y="1" width="21" height="22"/>
<path d="M17.8072 5.78891L17.8057 5.7877C17.7994 5.78328 17.7915 5.78098 17.7852 5.77699C17.8016 5.55301 17.7028 5.33695 17.5054 5.21059C16.5464 4.59582 14.6909 3.69832 12.8528 4.43453V3.03805C12.8528 2.4657 12.4381 2 11.9284 2H11.1002C10.5901 2 10.1755 2.4657 10.1755 3.03805V4.56758C9.3468 4.42004 7.54152 4.27402 5.80676 5.31008C5.54371 5.46664 5.43566 5.77777 5.54414 6.0657C5.555 6.09516 5.57512 6.11727 5.58965 6.14367C5.55164 6.15375 5.51211 6.1623 5.47457 6.17234C5.38652 6.19586 5.3023 6.23953 5.22937 6.29945C3.17703 8.00691 2 10.4415 2 12.9781C2 17.9529 6.42 22 11.8535 22C17.287 22 21.707 17.9529 21.707 12.9781C21.7072 10.1322 20.2857 7.5118 17.8072 5.78891ZM10.1738 5.32656C10.357 5.36484 10.5454 5.31863 10.6906 5.19977C10.8371 5.0809 10.9206 4.90391 10.9206 4.715V3.03805C10.9206 2.8734 11.0175 2.74523 11.1002 2.74523H11.9284C12.0114 2.74523 12.1076 2.8734 12.1076 3.03805V4.62117C12.1076 4.83355 12.2142 5.02918 12.393 5.14391C12.4809 5.20078 12.5817 5.23448 12.686 5.24185C12.7904 5.24922 12.8949 5.23003 12.9898 5.18605C14.3517 4.56348 15.7921 5.09324 16.7136 5.60473C15.8448 5.59359 15.1375 5.66254 14.5958 5.79594C14.3506 5.8559 14.1684 6.05562 14.1315 6.3048C14.094 6.56008 14.2142 6.80941 14.4374 6.94125C14.9791 7.25984 15.3339 7.61754 15.5693 7.96895C15.7389 8.22191 15.8481 8.47156 15.9122 8.70059C15.0959 8.03223 14.1803 7.7866 13.553 7.69871C13.3815 7.67452 13.2089 7.65934 13.0358 7.65324C12.8644 7.64773 12.7019 7.71059 12.5791 7.83129C12.4572 7.95094 12.3886 8.11832 12.3912 8.28996C12.421 10.2036 11.7597 11.4873 11.3752 12.0681C11.0082 11.2902 10.895 9.61641 10.9154 8.24129C10.9206 7.92375 10.6841 7.65367 10.3643 7.61234C10.2682 7.60004 10.1714 7.59392 10.0745 7.59402C10.0559 7.59402 10.0368 7.59738 10.0185 7.59816C9.96785 7.59922 9.91688 7.60484 9.86574 7.60898C9.78898 7.61523 9.71223 7.62269 9.6352 7.63582C9.58516 7.64391 9.53523 7.65477 9.48535 7.66559C9.40564 7.68275 9.32651 7.7025 9.24809 7.7248C9.20004 7.73867 9.15227 7.75348 9.10449 7.76949C9.02255 7.7968 8.94144 7.82651 8.86125 7.85859C8.81578 7.87695 8.77062 7.89477 8.72563 7.91445C8.64293 7.95062 8.56098 7.98906 8.4798 8.02949C8.43723 8.05043 8.3948 8.0709 8.3527 8.09285C8.26914 8.1372 8.18651 8.18329 8.10488 8.23109C8.0666 8.25352 8.02813 8.27441 7.99016 8.29746C7.90206 8.35127 7.81501 8.40677 7.72906 8.46395C7.70098 8.48254 7.67203 8.50008 7.64437 8.51871C7.5331 8.59401 7.42342 8.67163 7.31539 8.75152C7.44043 8.52511 7.581 8.30762 7.73609 8.10063C7.74402 8.09023 7.75148 8.07836 7.75883 8.06828C7.89979 7.88233 8.05265 7.70571 8.21645 7.53953L8.21871 7.53727C8.39065 7.36293 8.57534 7.20165 8.77125 7.05477C8.79508 7.03691 8.82039 7.01648 8.84313 7.00016C8.85652 6.99039 8.86734 6.98367 8.88035 6.97438C8.92629 6.94203 8.9716 6.91031 9.01188 6.88375C9.20719 6.75602 9.31445 6.53246 9.2902 6.29961C9.27899 6.18562 9.23649 6.07696 9.16738 5.98562C9.09828 5.89428 9.00527 5.82382 8.89863 5.78203C8.87957 5.77457 8.85625 5.7709 8.83641 5.76387C8.75047 5.73369 8.66309 5.70782 8.57457 5.68637C8.51685 5.67163 8.45869 5.6587 8.40016 5.64762C8.3916 5.64605 8.38414 5.64348 8.37516 5.64195C8.36965 5.6409 8.36445 5.64242 8.35879 5.64168C7.93367 5.56707 7.43215 5.5559 6.84758 5.61848C8.25289 5.0359 9.605 5.20879 10.1738 5.32656ZM11.8532 21.2552C6.83109 21.2552 2.74477 17.5423 2.74477 12.9784C2.74477 10.6702 3.8182 8.45035 5.68789 6.88691C6.49156 6.67316 7.35645 6.50164 8.2323 6.3773C8.26176 6.38246 8.29426 6.38539 8.32246 6.39148C8.34598 6.39621 8.37023 6.40078 8.3925 6.40598C8.3591 6.43008 8.32172 6.46059 8.28633 6.48746C8.24754 6.51738 8.21063 6.54422 8.1702 6.57703C8.13465 6.6057 8.09711 6.63992 8.06062 6.67086C8.01547 6.70934 7.97195 6.74457 7.92531 6.78684C7.88137 6.82668 7.83586 6.87289 7.79086 6.91637C7.74949 6.95637 7.70922 6.99281 7.66711 7.0357C7.59188 7.11246 7.5159 7.19699 7.43977 7.28383C7.42711 7.29828 7.41488 7.31019 7.40223 7.32484C7.0452 7.73988 6.68672 8.26937 6.39652 8.93148C6.27992 9.19848 6.35789 9.49664 6.59062 9.67258C6.70285 9.75793 6.84064 9.80283 6.9816 9.79998C7.12257 9.79713 7.25843 9.7467 7.36711 9.65688C8.00387 9.13273 9.19359 8.27719 10.1694 8.34172C10.1596 9.38984 10.2152 11.6632 10.8382 12.6335C10.8931 12.7191 10.968 12.79 11.0565 12.8401C11.145 12.8903 11.2443 12.9181 11.346 12.9212H11.3646C11.5636 12.9212 11.751 12.8263 11.8692 12.6641C12.2556 12.1332 13.1407 10.6685 13.1379 8.40394C13.6821 8.43965 14.7891 8.62262 15.6691 9.48215C15.8615 9.66953 16.1409 9.71395 16.3797 9.5943C16.6211 9.47438 16.7557 9.22352 16.7218 8.95496C16.6977 8.76813 16.6573 8.58377 16.6011 8.40394C16.5984 8.39527 16.597 8.3875 16.5943 8.37863C16.5369 8.19855 16.455 8.01043 16.3514 7.82004C16.3371 7.79359 16.3268 7.76781 16.3115 7.74141C16.265 7.66055 16.2081 7.57937 16.1513 7.49852C16.1316 7.47012 16.1164 7.44176 16.0954 7.41352C16.0471 7.34867 15.9882 7.28426 15.9327 7.21973C15.8946 7.17547 15.8621 7.13078 15.8208 7.08684C15.7724 7.03527 15.7128 6.98504 15.6591 6.93437C15.6002 6.87852 15.5466 6.82191 15.4813 6.76668C15.4252 6.71941 15.357 6.67391 15.2954 6.62738C15.2213 6.57109 15.1526 6.51371 15.0707 6.45891C15.257 6.42688 15.4895 6.39789 15.7727 6.37727C15.7839 6.37668 15.7955 6.3759 15.8069 6.37516C15.9444 6.36624 16.0821 6.35962 16.2198 6.35531C16.2787 6.35348 16.3395 6.35242 16.4017 6.35164C16.4304 6.35121 16.4586 6.35059 16.488 6.35012C16.6017 6.34906 16.7221 6.34969 16.847 6.35168L16.9808 6.36355C17.0909 6.37852 17.2017 6.39148 17.3123 6.40492L17.4046 6.41574C19.6656 7.9973 20.962 10.3876 20.962 12.9775C20.962 17.5423 16.8756 21.2552 11.8532 21.2552Z"/>
</mask>
<path d="M17.8072 5.78891L17.8057 5.7877C17.7994 5.78328 17.7915 5.78098 17.7852 5.77699C17.8016 5.55301 17.7028 5.33695 17.5054 5.21059C16.5464 4.59582 14.6909 3.69832 12.8528 4.43453V3.03805C12.8528 2.4657 12.4381 2 11.9284 2H11.1002C10.5901 2 10.1755 2.4657 10.1755 3.03805V4.56758C9.3468 4.42004 7.54152 4.27402 5.80676 5.31008C5.54371 5.46664 5.43566 5.77777 5.54414 6.0657C5.555 6.09516 5.57512 6.11727 5.58965 6.14367C5.55164 6.15375 5.51211 6.1623 5.47457 6.17234C5.38652 6.19586 5.3023 6.23953 5.22937 6.29945C3.17703 8.00691 2 10.4415 2 12.9781C2 17.9529 6.42 22 11.8535 22C17.287 22 21.707 17.9529 21.707 12.9781C21.7072 10.1322 20.2857 7.5118 17.8072 5.78891ZM10.1738 5.32656C10.357 5.36484 10.5454 5.31863 10.6906 5.19977C10.8371 5.0809 10.9206 4.90391 10.9206 4.715V3.03805C10.9206 2.8734 11.0175 2.74523 11.1002 2.74523H11.9284C12.0114 2.74523 12.1076 2.8734 12.1076 3.03805V4.62117C12.1076 4.83355 12.2142 5.02918 12.393 5.14391C12.4809 5.20078 12.5817 5.23448 12.686 5.24185C12.7904 5.24922 12.8949 5.23003 12.9898 5.18605C14.3517 4.56348 15.7921 5.09324 16.7136 5.60473C15.8448 5.59359 15.1375 5.66254 14.5958 5.79594C14.3506 5.8559 14.1684 6.05562 14.1315 6.3048C14.094 6.56008 14.2142 6.80941 14.4374 6.94125C14.9791 7.25984 15.3339 7.61754 15.5693 7.96895C15.7389 8.22191 15.8481 8.47156 15.9122 8.70059C15.0959 8.03223 14.1803 7.7866 13.553 7.69871C13.3815 7.67452 13.2089 7.65934 13.0358 7.65324C12.8644 7.64773 12.7019 7.71059 12.5791 7.83129C12.4572 7.95094 12.3886 8.11832 12.3912 8.28996C12.421 10.2036 11.7597 11.4873 11.3752 12.0681C11.0082 11.2902 10.895 9.61641 10.9154 8.24129C10.9206 7.92375 10.6841 7.65367 10.3643 7.61234C10.2682 7.60004 10.1714 7.59392 10.0745 7.59402C10.0559 7.59402 10.0368 7.59738 10.0185 7.59816C9.96785 7.59922 9.91688 7.60484 9.86574 7.60898C9.78898 7.61523 9.71223 7.62269 9.6352 7.63582C9.58516 7.64391 9.53523 7.65477 9.48535 7.66559C9.40564 7.68275 9.32651 7.7025 9.24809 7.7248C9.20004 7.73867 9.15227 7.75348 9.10449 7.76949C9.02255 7.7968 8.94144 7.82651 8.86125 7.85859C8.81578 7.87695 8.77062 7.89477 8.72563 7.91445C8.64293 7.95062 8.56098 7.98906 8.4798 8.02949C8.43723 8.05043 8.3948 8.0709 8.3527 8.09285C8.26914 8.1372 8.18651 8.18329 8.10488 8.23109C8.0666 8.25352 8.02813 8.27441 7.99016 8.29746C7.90206 8.35127 7.81501 8.40677 7.72906 8.46395C7.70098 8.48254 7.67203 8.50008 7.64437 8.51871C7.5331 8.59401 7.42342 8.67163 7.31539 8.75152C7.44043 8.52511 7.581 8.30762 7.73609 8.10063C7.74402 8.09023 7.75148 8.07836 7.75883 8.06828C7.89979 7.88233 8.05265 7.70571 8.21645 7.53953L8.21871 7.53727C8.39065 7.36293 8.57534 7.20165 8.77125 7.05477C8.79508 7.03691 8.82039 7.01648 8.84313 7.00016C8.85652 6.99039 8.86734 6.98367 8.88035 6.97438C8.92629 6.94203 8.9716 6.91031 9.01188 6.88375C9.20719 6.75602 9.31445 6.53246 9.2902 6.29961C9.27899 6.18562 9.23649 6.07696 9.16738 5.98562C9.09828 5.89428 9.00527 5.82382 8.89863 5.78203C8.87957 5.77457 8.85625 5.7709 8.83641 5.76387C8.75047 5.73369 8.66309 5.70782 8.57457 5.68637C8.51685 5.67163 8.45869 5.6587 8.40016 5.64762C8.3916 5.64605 8.38414 5.64348 8.37516 5.64195C8.36965 5.6409 8.36445 5.64242 8.35879 5.64168C7.93367 5.56707 7.43215 5.5559 6.84758 5.61848C8.25289 5.0359 9.605 5.20879 10.1738 5.32656ZM11.8532 21.2552C6.83109 21.2552 2.74477 17.5423 2.74477 12.9784C2.74477 10.6702 3.8182 8.45035 5.68789 6.88691C6.49156 6.67316 7.35645 6.50164 8.2323 6.3773C8.26176 6.38246 8.29426 6.38539 8.32246 6.39148C8.34598 6.39621 8.37023 6.40078 8.3925 6.40598C8.3591 6.43008 8.32172 6.46059 8.28633 6.48746C8.24754 6.51738 8.21063 6.54422 8.1702 6.57703C8.13465 6.6057 8.09711 6.63992 8.06062 6.67086C8.01547 6.70934 7.97195 6.74457 7.92531 6.78684C7.88137 6.82668 7.83586 6.87289 7.79086 6.91637C7.74949 6.95637 7.70922 6.99281 7.66711 7.0357C7.59188 7.11246 7.5159 7.19699 7.43977 7.28383C7.42711 7.29828 7.41488 7.31019 7.40223 7.32484C7.0452 7.73988 6.68672 8.26937 6.39652 8.93148C6.27992 9.19848 6.35789 9.49664 6.59062 9.67258C6.70285 9.75793 6.84064 9.80283 6.9816 9.79998C7.12257 9.79713 7.25843 9.7467 7.36711 9.65688C8.00387 9.13273 9.19359 8.27719 10.1694 8.34172C10.1596 9.38984 10.2152 11.6632 10.8382 12.6335C10.8931 12.7191 10.968 12.79 11.0565 12.8401C11.145 12.8903 11.2443 12.9181 11.346 12.9212H11.3646C11.5636 12.9212 11.751 12.8263 11.8692 12.6641C12.2556 12.1332 13.1407 10.6685 13.1379 8.40394C13.6821 8.43965 14.7891 8.62262 15.6691 9.48215C15.8615 9.66953 16.1409 9.71395 16.3797 9.5943C16.6211 9.47438 16.7557 9.22352 16.7218 8.95496C16.6977 8.76813 16.6573 8.58377 16.6011 8.40394C16.5984 8.39527 16.597 8.3875 16.5943 8.37863C16.5369 8.19855 16.455 8.01043 16.3514 7.82004C16.3371 7.79359 16.3268 7.76781 16.3115 7.74141C16.265 7.66055 16.2081 7.57937 16.1513 7.49852C16.1316 7.47012 16.1164 7.44176 16.0954 7.41352C16.0471 7.34867 15.9882 7.28426 15.9327 7.21973C15.8946 7.17547 15.8621 7.13078 15.8208 7.08684C15.7724 7.03527 15.7128 6.98504 15.6591 6.93437C15.6002 6.87852 15.5466 6.82191 15.4813 6.76668C15.4252 6.71941 15.357 6.67391 15.2954 6.62738C15.2213 6.57109 15.1526 6.51371 15.0707 6.45891C15.257 6.42688 15.4895 6.39789 15.7727 6.37727C15.7839 6.37668 15.7955 6.3759 15.8069 6.37516C15.9444 6.36624 16.0821 6.35962 16.2198 6.35531C16.2787 6.35348 16.3395 6.35242 16.4017 6.35164C16.4304 6.35121 16.4586 6.35059 16.488 6.35012C16.6017 6.34906 16.7221 6.34969 16.847 6.35168L16.9808 6.36355C17.0909 6.37852 17.2017 6.39148 17.3123 6.40492L17.4046 6.41574C19.6656 7.9973 20.962 10.3876 20.962 12.9775C20.962 17.5423 16.8756 21.2552 11.8532 21.2552Z" fill="#868D97"/>
<path d="M17.8072 5.78891L17.8057 5.7877C17.7994 5.78328 17.7915 5.78098 17.7852 5.77699C17.8016 5.55301 17.7028 5.33695 17.5054 5.21059C16.5464 4.59582 14.6909 3.69832 12.8528 4.43453V3.03805C12.8528 2.4657 12.4381 2 11.9284 2H11.1002C10.5901 2 10.1755 2.4657 10.1755 3.03805V4.56758C9.3468 4.42004 7.54152 4.27402 5.80676 5.31008C5.54371 5.46664 5.43566 5.77777 5.54414 6.0657C5.555 6.09516 5.57512 6.11727 5.58965 6.14367C5.55164 6.15375 5.51211 6.1623 5.47457 6.17234C5.38652 6.19586 5.3023 6.23953 5.22937 6.29945C3.17703 8.00691 2 10.4415 2 12.9781C2 17.9529 6.42 22 11.8535 22C17.287 22 21.707 17.9529 21.707 12.9781C21.7072 10.1322 20.2857 7.5118 17.8072 5.78891ZM10.1738 5.32656C10.357 5.36484 10.5454 5.31863 10.6906 5.19977C10.8371 5.0809 10.9206 4.90391 10.9206 4.715V3.03805C10.9206 2.8734 11.0175 2.74523 11.1002 2.74523H11.9284C12.0114 2.74523 12.1076 2.8734 12.1076 3.03805V4.62117C12.1076 4.83355 12.2142 5.02918 12.393 5.14391C12.4809 5.20078 12.5817 5.23448 12.686 5.24185C12.7904 5.24922 12.8949 5.23003 12.9898 5.18605C14.3517 4.56348 15.7921 5.09324 16.7136 5.60473C15.8448 5.59359 15.1375 5.66254 14.5958 5.79594C14.3506 5.8559 14.1684 6.05562 14.1315 6.3048C14.094 6.56008 14.2142 6.80941 14.4374 6.94125C14.9791 7.25984 15.3339 7.61754 15.5693 7.96895C15.7389 8.22191 15.8481 8.47156 15.9122 8.70059C15.0959 8.03223 14.1803 7.7866 13.553 7.69871C13.3815 7.67452 13.2089 7.65934 13.0358 7.65324C12.8644 7.64773 12.7019 7.71059 12.5791 7.83129C12.4572 7.95094 12.3886 8.11832 12.3912 8.28996C12.421 10.2036 11.7597 11.4873 11.3752 12.0681C11.0082 11.2902 10.895 9.61641 10.9154 8.24129C10.9206 7.92375 10.6841 7.65367 10.3643 7.61234C10.2682 7.60004 10.1714 7.59392 10.0745 7.59402C10.0559 7.59402 10.0368 7.59738 10.0185 7.59816C9.96785 7.59922 9.91688 7.60484 9.86574 7.60898C9.78898 7.61523 9.71223 7.62269 9.6352 7.63582C9.58516 7.64391 9.53523 7.65477 9.48535 7.66559C9.40564 7.68275 9.32651 7.7025 9.24809 7.7248C9.20004 7.73867 9.15227 7.75348 9.10449 7.76949C9.02255 7.7968 8.94144 7.82651 8.86125 7.85859C8.81578 7.87695 8.77062 7.89477 8.72563 7.91445C8.64293 7.95062 8.56098 7.98906 8.4798 8.02949C8.43723 8.05043 8.3948 8.0709 8.3527 8.09285C8.26914 8.1372 8.18651 8.18329 8.10488 8.23109C8.0666 8.25352 8.02813 8.27441 7.99016 8.29746C7.90206 8.35127 7.81501 8.40677 7.72906 8.46395C7.70098 8.48254 7.67203 8.50008 7.64437 8.51871C7.5331 8.59401 7.42342 8.67163 7.31539 8.75152C7.44043 8.52511 7.581 8.30762 7.73609 8.10063C7.74402 8.09023 7.75148 8.07836 7.75883 8.06828C7.89979 7.88233 8.05265 7.70571 8.21645 7.53953L8.21871 7.53727C8.39065 7.36293 8.57534 7.20165 8.77125 7.05477C8.79508 7.03691 8.82039 7.01648 8.84313 7.00016C8.85652 6.99039 8.86734 6.98367 8.88035 6.97438C8.92629 6.94203 8.9716 6.91031 9.01188 6.88375C9.20719 6.75602 9.31445 6.53246 9.2902 6.29961C9.27899 6.18562 9.23649 6.07696 9.16738 5.98562C9.09828 5.89428 9.00527 5.82382 8.89863 5.78203C8.87957 5.77457 8.85625 5.7709 8.83641 5.76387C8.75047 5.73369 8.66309 5.70782 8.57457 5.68637C8.51685 5.67163 8.45869 5.6587 8.40016 5.64762C8.3916 5.64605 8.38414 5.64348 8.37516 5.64195C8.36965 5.6409 8.36445 5.64242 8.35879 5.64168C7.93367 5.56707 7.43215 5.5559 6.84758 5.61848C8.25289 5.0359 9.605 5.20879 10.1738 5.32656ZM11.8532 21.2552C6.83109 21.2552 2.74477 17.5423 2.74477 12.9784C2.74477 10.6702 3.8182 8.45035 5.68789 6.88691C6.49156 6.67316 7.35645 6.50164 8.2323 6.3773C8.26176 6.38246 8.29426 6.38539 8.32246 6.39148C8.34598 6.39621 8.37023 6.40078 8.3925 6.40598C8.3591 6.43008 8.32172 6.46059 8.28633 6.48746C8.24754 6.51738 8.21063 6.54422 8.1702 6.57703C8.13465 6.6057 8.09711 6.63992 8.06062 6.67086C8.01547 6.70934 7.97195 6.74457 7.92531 6.78684C7.88137 6.82668 7.83586 6.87289 7.79086 6.91637C7.74949 6.95637 7.70922 6.99281 7.66711 7.0357C7.59188 7.11246 7.5159 7.19699 7.43977 7.28383C7.42711 7.29828 7.41488 7.31019 7.40223 7.32484C7.0452 7.73988 6.68672 8.26937 6.39652 8.93148C6.27992 9.19848 6.35789 9.49664 6.59062 9.67258C6.70285 9.75793 6.84064 9.80283 6.9816 9.79998C7.12257 9.79713 7.25843 9.7467 7.36711 9.65688C8.00387 9.13273 9.19359 8.27719 10.1694 8.34172C10.1596 9.38984 10.2152 11.6632 10.8382 12.6335C10.8931 12.7191 10.968 12.79 11.0565 12.8401C11.145 12.8903 11.2443 12.9181 11.346 12.9212H11.3646C11.5636 12.9212 11.751 12.8263 11.8692 12.6641C12.2556 12.1332 13.1407 10.6685 13.1379 8.40394C13.6821 8.43965 14.7891 8.62262 15.6691 9.48215C15.8615 9.66953 16.1409 9.71395 16.3797 9.5943C16.6211 9.47438 16.7557 9.22352 16.7218 8.95496C16.6977 8.76813 16.6573 8.58377 16.6011 8.40394C16.5984 8.39527 16.597 8.3875 16.5943 8.37863C16.5369 8.19855 16.455 8.01043 16.3514 7.82004C16.3371 7.79359 16.3268 7.76781 16.3115 7.74141C16.265 7.66055 16.2081 7.57937 16.1513 7.49852C16.1316 7.47012 16.1164 7.44176 16.0954 7.41352C16.0471 7.34867 15.9882 7.28426 15.9327 7.21973C15.8946 7.17547 15.8621 7.13078 15.8208 7.08684C15.7724 7.03527 15.7128 6.98504 15.6591 6.93437C15.6002 6.87852 15.5466 6.82191 15.4813 6.76668C15.4252 6.71941 15.357 6.67391 15.2954 6.62738C15.2213 6.57109 15.1526 6.51371 15.0707 6.45891C15.257 6.42688 15.4895 6.39789 15.7727 6.37727C15.7839 6.37668 15.7955 6.3759 15.8069 6.37516C15.9444 6.36624 16.0821 6.35962 16.2198 6.35531C16.2787 6.35348 16.3395 6.35242 16.4017 6.35164C16.4304 6.35121 16.4586 6.35059 16.488 6.35012C16.6017 6.34906 16.7221 6.34969 16.847 6.35168L16.9808 6.36355C17.0909 6.37852 17.2017 6.39148 17.3123 6.40492L17.4046 6.41574C19.6656 7.9973 20.962 10.3876 20.962 12.9775C20.962 17.5423 16.8756 21.2552 11.8532 21.2552Z" stroke="#868D97" stroke-width="0.4" mask="url(#path-1-outside-1_3405_1883)"/>
<path d="M4.25702 13.442C4.22713 13.2385 4.04127 13.095 3.83405 13.1275C3.63065 13.1573 3.48983 13.3466 3.5196 13.5503C3.60124 14.1046 3.78385 14.6248 4.06249 15.0951C4.08743 15.1372 4.12043 15.1739 4.15958 15.2033C4.19874 15.2326 4.24329 15.2539 4.29068 15.266C4.33808 15.2781 4.3874 15.2808 4.43582 15.2738C4.48424 15.2668 4.53081 15.2504 4.57288 15.2254C4.75034 15.1207 4.80831 14.8916 4.70366 14.715C4.47749 14.3343 4.32295 13.8939 4.25702 13.442ZM3.90897 12.3119C3.91752 12.3125 3.92655 12.313 3.93506 12.313C4.12917 12.313 4.29272 12.1628 4.30616 11.9661C4.33592 11.5417 4.42272 11.13 4.56463 10.7421C4.63514 10.5485 4.53596 10.3345 4.34264 10.2642C4.14811 10.1942 3.93491 10.2929 3.86456 10.4862C3.69917 10.94 3.59737 11.4203 3.56245 11.9147C3.5487 12.1197 3.70327 12.2977 3.90897 12.3119Z" fill="#868D97"/>
</svg>
