<svg width="25" height="25" viewBox="0 0 25 25" fill="none" xmlns="http://www.w3.org/2000/svg">
<path d="M14 5C14 4.17157 13.3284 3.5 12.5 3.5C11.6716 3.5 11 4.17157 11 5C11 5.82843 11.6716 6.5 12.5 6.5C13.3284 6.5 14 5.82843 14 5Z" stroke="#868897" stroke-width="1.5"/>
<path d="M14 12.5C14 11.6716 13.3284 11 12.5 11C11.6716 11 11 11.6716 11 12.5C11 13.3284 11.6716 14 12.5 14C13.3284 14 14 13.3284 14 12.5Z" stroke="#868897" stroke-width="1.5"/>
<path d="M14 20C14 19.1716 13.3284 18.5 12.5 18.5C11.6716 18.5 11 19.1716 11 20C11 20.8284 11.6716 21.5 12.5 21.5C13.3284 21.5 14 20.8284 14 20Z" stroke="#868897" stroke-width="1.5"/>
</svg>
